#N canvas 602 100 450 300 10;
#X obj 165 88 adc~;
#X obj 177 211 dac~;
#X obj 184 156 *~;
#X obj 214 88 osc~ 220;
#X connect 0 0 2 0;
#X connect 0 1 2 0;
#X connect 2 0 1 0;
#X connect 2 0 1 1;
#X connect 3 0 2 1;
