#N canvas 377 266 450 300 10;
#X obj 15 44 loadbang;
#N canvas 0 0 450 300 (subpatch) 0;
#X array output 4096 float 2;
#X coords 0 1 4095 -1 200 140 1;
#X restore 239 47 graph;
#X obj 15 64 t b b;
#X obj 15 84 \$1;
#X text 12 7 Intended to test audio units \, this patch will write
1 seconds worth of samples \, and print them.;
#X obj 15 198 print~;
#X obj 46 84 delay 1000;
#X msg 46 105 \; pd quit \;;
#X connect 0 0 2 0;
#X connect 2 0 3 0;
#X connect 2 1 6 0;
#X connect 3 0 5 0;
#X connect 6 0 7 0;
