#N canvas 245 208 450 300 10;
#X obj 102 16 loadbang;
#X obj 109 117 pack 1 2 s 4;
#X obj 88 70 f 44;
#X obj 139 66 f 45;
#X obj 202 67 symbol cat;
#X obj 323 83 f 66;
#X obj 112 161 print aa;
#X obj 184 11 bng 15 250 50 0 empty empty empty 17 7 0 10 -262144 -1
-1;
#X connect 0 0 5 0;
#X connect 0 0 4 0;
#X connect 0 0 3 0;
#X connect 0 0 2 0;
#X connect 1 0 6 0;
#X connect 2 0 1 0;
#X connect 3 0 1 1;
#X connect 4 0 1 2;
#X connect 5 0 1 3;
#X connect 7 0 2 0;
