#N canvas 768 371 450 280 10;
#X obj 98 8 loadbang;
#X obj 32 187 print aa;
#X obj 204 33 bng 15 250 50 0 empty empty empty 17 7 0 10 -262144 -1
-1;
#X msg 201 93 1 cat 2 2;
#X obj 109 145 unpack 1 s 2 2;
#X obj 106 208 print bb;
#X obj 204 206 print cc;
#X obj 297 195 print dd;
#X connect 0 0 3 0;
#X connect 2 0 3 0;
#X connect 3 0 4 0;
#X connect 4 0 1 0;
#X connect 4 1 5 0;
#X connect 4 2 6 0;
#X connect 4 3 7 0;
