#N canvas 920 321 450 300 10;
#X obj 100 137 timer;
#X obj 100 24 loadbang;
#X obj 169 25 bng 15 250 50 0 empty empty empty 17 7 0 10 -262144 -1
-1;
#X obj 169 81 delay 1247;
#X obj 100 180 print;
#X connect 0 0 4 0;
#X connect 1 0 3 0;
#X connect 1 0 0 0;
#X connect 2 0 3 0;
#X connect 2 0 0 0;
#X connect 3 0 0 1;
