#N canvas 1080 456 450 300 10;
#X obj 43 30 loadbang;
#X obj 107 31 bng 15 250 50 0 empty empty empty 17 7 0 10 -262144 -1
-1;
#X obj 43 207 print;
#X msg 97 113 23;
#X obj 43 153 t f b s a;
#X obj 43 57 t b b b;
#X msg 58 110 cat;
#X connect 0 0 5 0;
#X connect 1 0 5 0;
#X connect 3 0 4 0;
#X connect 4 0 2 0;
#X connect 4 1 2 0;
#X connect 4 2 2 0;
#X connect 4 3 2 0;
#X connect 5 0 4 0;
#X connect 5 1 6 0;
#X connect 5 2 3 0;
#X connect 6 0 4 0;
