#N canvas 805 312 450 300 10;
#X obj 46 34 loadbang;
#X obj 46 217 print;
#X obj 117 34 bng 15 250 50 0 empty empty empty 17 7 0 10 -262144 -1
-1;
#X obj 117 34 bng 15 250 50 0 empty empty empty 17 7 0 10 -262144 -1
-1;
#X msg 150 123 23;
#X obj 46 69 t b b b b b;
#X obj 46 179 min;
#X msg 114 123 11;
#X msg 78 123 5;
#X connect 0 0 5 0;
#X connect 2 0 5 0;
#X connect 4 0 6 0;
#X connect 5 0 6 0;
#X connect 5 1 8 0;
#X connect 5 2 7 0;
#X connect 5 3 4 0;
#X connect 5 4 6 0;
#X connect 6 0 1 0;
#X connect 7 0 6 1;
#X connect 8 0 6 0;
