#N canvas 166 207 450 300 10;
#X obj 156 41 bng 15 250 50 0 empty empty empty 17 7 0 10 -262144 -1
-1;
#X obj 202 41 loadbang;
#X obj 187 178 pack f f f;
#X obj 187 219 print;
#X obj 263 134 f 3;
#X obj 223 135 f 2;
#X obj 190 136 f 1;
#X obj 167 96 t b b b b;
#X connect 0 0 7 0;
#X connect 1 0 7 0;
#X connect 2 0 3 0;
#X connect 4 0 2 2;
#X connect 5 0 2 1;
#X connect 6 0 2 0;
#X connect 7 0 2 0;
#X connect 7 1 6 0;
#X connect 7 2 5 0;
#X connect 7 3 4 0;
