#N canvas 538 240 299 337 10;
#X obj 74 21 loadbang;
#X obj 42 21 bng 15 250 50 0 empty empty empty 17 7 0 10 -262144 -1
-1;
#X obj 62 134 t b b b;
#X msg 85 180 0;
#X obj 124 180 1;
#X obj 80 226 != 0;
#X obj 80 260 print;
#X msg 163 181 0;
#X msg 203 181 1;
#X obj 64 80 t b b b b;
#X connect 0 0 9 0;
#X connect 1 0 9 0;
#X connect 2 0 5 0;
#X connect 2 1 3 0;
#X connect 2 2 4 0;
#X connect 3 0 5 0;
#X connect 4 0 5 0;
#X connect 5 0 6 0;
#X connect 7 0 5 1;
#X connect 8 0 5 1;
#X connect 9 0 2 0;
#X connect 9 1 7 0;
#X connect 9 2 2 0;
#X connect 9 3 8 0;
