#N canvas 665 246 450 300 10;
#X obj 22 20 loadbang;
#X obj 22 50 t b b b b;
#X obj 92 178 change 32;
#X msg 120 133 set \$1;
#X msg 120 91 55;
#X msg 22 116 8.5;
#X obj 92 217 print;
#X obj 95 21 bng 15 250 50 0 empty empty empty 17 7 0 10 -262144 -1
-1;
#X connect 0 0 1 0;
#X connect 1 0 5 0;
#X connect 1 1 2 0;
#X connect 1 2 4 0;
#X connect 1 3 2 0;
#X connect 2 0 6 0;
#X connect 3 0 2 0;
#X connect 4 0 3 0;
#X connect 5 0 2 0;
#X connect 7 0 1 0;
