#N canvas 958 175 450 300 10;
#X obj 157 46 loadbang;
#X obj 232 47 bng 15 250 50 0 empty empty empty 17 7 0 10 -262144 -1
-1;
#X msg 222 126 11;
#X msg 257 127 3;
#X msg 187 126 0;
#X obj 209 236 print;
#X msg 120 128 -10;
#X msg 88 128 0;
#X msg 153 127 10;
#X obj 209 201 ||;
#X obj 157 76 t b b b b b b b b;
#X msg 328 126 0;
#X msg 294 127 0;
#X connect 0 0 10 0;
#X connect 1 0 10 0;
#X connect 2 0 9 0;
#X connect 3 0 9 1;
#X connect 4 0 9 1;
#X connect 6 0 9 1;
#X connect 7 0 9 0;
#X connect 8 0 9 0;
#X connect 9 0 5 0;
#X connect 10 0 7 0;
#X connect 10 1 6 0;
#X connect 10 2 8 0;
#X connect 10 3 4 0;
#X connect 10 4 2 0;
#X connect 10 5 3 0;
#X connect 10 6 12 0;
#X connect 10 7 11 0;
#X connect 11 0 9 1;
#X connect 12 0 9 0;
