#N canvas 770 128 450 300 10;
#X obj 21 19 loadbang;
#X msg 140 78 13;
#X obj 21 181 print;
#X msg 111 78 x;
#X msg 51 78 4;
#X msg 21 78 5 7;
#X msg 170 78 x;
#X msg 200 78 5;
#X obj 21 47 t b b b b b b b b b;
#X msg 233 78 2 3 4;
#X msg 280 78 5;
#X msg 80 78 0;
#X obj 82 19 bng 15 250 50 0 empty empty empty 17 7 0 10 -262144 -1
-1;
#X obj 21 158 % 5;
#X connect 0 0 8 0;
#X connect 1 0 13 0;
#X connect 3 0 13 0;
#X connect 4 0 13 0;
#X connect 5 0 13 0;
#X connect 6 0 13 1;
#X connect 7 0 13 0;
#X connect 8 0 5 0;
#X connect 8 1 4 0;
#X connect 8 2 11 0;
#X connect 8 3 3 0;
#X connect 8 4 1 0;
#X connect 8 5 6 0;
#X connect 8 6 7 0;
#X connect 8 7 9 0;
#X connect 8 8 10 0;
#X connect 9 0 13 0;
#X connect 10 0 13 0;
#X connect 11 0 13 1;
#X connect 12 0 8 0;
#X connect 13 0 2 0;
