#N canvas 312 136 450 300 10;
#X obj 115 248 dac~;
#X obj 124 195 osc~ 440;
#X obj 125 152 *~ 50;
#X obj 125 173 +~ 440;
#X obj 125 131 osc~ 0.5;
#X obj 143 32 osc~ 0.37123;
#X obj 141 82 +~ 0.5;
#X obj 141 59 *~ 0.25;
#X connect 1 0 0 0;
#X connect 1 0 0 1;
#X connect 2 0 3 0;
#X connect 3 0 1 0;
#X connect 4 0 2 0;
#X connect 5 0 7 0;
#X connect 6 0 4 0;
#X connect 7 0 6 0;
